# xmcd
#
# Track frame offsets: 
#        150
#        13830
#        27205
#        38950
#        50860
#        62477
#        74992
#        84765
#        96052
#        111712
#        122630
#        130422
#        142872
#        153432
#        165950
#        177177
#        192712
#        206527
#
# Disc length: 2859 seconds
#
# Revision: 2
# Processed by: cddbd v1.5.2PL0 Copyright (c) Steve Scherf et al.
# Submitted via: ExactAudioCopyFreeDBPlugin 1.0
#
DISCID=040b2912
DTITLE=Nightdrivers - Let Me Take You For A Ride
DYEAR=2004
DGENRE=Rock and Roll
TTITLE0=I'm Ready
TTITLE1=I Guess Things Happens That Way
TTITLE2=Yellow Jacket
TTITLE3=Big Cold Bottle Of Beer
TTITLE4=Your True Love
TTITLE5=Boppin' The Blues
TTITLE6=The McCoy
TTITLE7=Sea Cruise
TTITLE8=Let Me Take  You For A Ride
TTITLE9=Without Love
TTITLE10=El Cumbanchero
TTITLE11=No Particular Place To Go
TTITLE12=Believe What You Say
TTITLE13=I Still Miss Someone
TTITLE14=Walk Don't Run '64
TTITLE15=It's All Over Now
TTITLE16=Why You Been Gone So Long
TTITLE17=Hawaii Five-O
EXTD=
EXTT0=
EXTT1=
EXTT2=
EXTT3=
EXTT4=
EXTT5=
EXTT6=
EXTT7=
EXTT8=
EXTT9=
EXTT10=
EXTT11=
EXTT12=
EXTT13=
EXTT14=
EXTT15=
EXTT16=
EXTT17=
PLAYORDER=
